<?xml version="1.0" encoding="utf-8"?>
<!-- Generator: Adobe Illustrator 18.0.0, SVG Export Plug-In . SVG Version: 6.00 Build 0)  -->
<!DOCTYPE svg PUBLIC "-//W3C//DTD SVG 1.1//EN" "http://www.w3.org/Graphics/SVG/1.1/DTD/svg11.dtd">
<svg version="1.1" id="Layer_1" xmlns="http://www.w3.org/2000/svg" xmlns:xlink="http://www.w3.org/1999/xlink" x="0px" y="0px"
	 viewBox="312.4 377.7 13.3 14.3" enable-background="new 312.4 377.7 13.3 14.3" xml:space="preserve">
<g id="Yelp_-_Small_1_" enable-background="new    ">
</g>
<g id="Yelp_-_Medium_1_" enable-background="new    ">
</g>
<g id="Yelp_-_Large_1_" enable-background="new    ">
	<g id="Yelp_-_Large">
		<g>
			<path fill="#C41200" d="M317.6,386.7c0.2-0.1,0.4-0.3,0.4-0.6c0-0.3-0.1-0.5-0.4-0.6l-0.6-0.3c-2.3-1-2.4-1-2.5-1
				c-0.2,0-0.3,0.1-0.4,0.2c-0.2,0.4-0.3,1.5-0.2,2.3c0,0.3,0.1,0.5,0.1,0.6c0.1,0.2,0.2,0.3,0.4,0.3c0.1,0,0.2,0,2.3-0.7
				C316.6,387,317.5,386.7,317.6,386.7z M318.7,387.6c-0.3-0.1-0.5,0-0.7,0.2l-0.5,0.6c-1.6,1.9-1.7,2-1.7,2.1c0,0.1,0,0.1,0,0.2
				c0,0.1,0,0.2,0.1,0.3c0.4,0.4,2.1,1.1,2.7,1c0.2,0,0.3-0.2,0.4-0.3c0-0.1,0-0.2,0-2.4v-1C319.2,387.9,319,387.7,318.7,387.6z
				 M324.3,388.1c-0.1-0.1-0.2-0.1-2.3-0.8c0,0-0.9-0.3-0.9-0.3c-0.2-0.1-0.5,0-0.6,0.2c-0.2,0.2-0.2,0.5-0.1,0.7l0.4,0.6
				c1.3,2.1,1.3,2.2,1.4,2.3c0.1,0.1,0.3,0.1,0.5,0c0.5-0.2,1.7-1.7,1.8-2.3C324.4,388.3,324.4,388.2,324.3,388.1z M320.9,385.7
				C320.9,385.7,320.9,385.7,320.9,385.7c0.1,0,0.3-0.1,0.7-0.2c2.4-0.6,2.5-0.6,2.6-0.7c0.1-0.1,0.2-0.3,0.2-0.5v0
				c-0.1-0.6-1.1-2.2-1.6-2.4c-0.2-0.1-0.4-0.1-0.5,0c-0.1,0.1-0.2,0.2-1.4,1.9l-0.6,0.8c-0.2,0.2-0.2,0.5,0,0.7
				C320.4,385.6,320.6,385.7,320.9,385.7z M318.8,378c0-0.2-0.2-0.3-0.4-0.4c-0.6-0.2-2.9,0.5-3.4,1c-0.1,0.2-0.2,0.3-0.2,0.5
				c0.1,0.1,3,4.8,3,4.8c0.4,0.7,0.8,0.6,0.9,0.6c0.1,0,0.5-0.2,0.4-1C319.1,382.5,318.8,378.2,318.8,378z"/>
		</g>
	</g>
</g>
</svg>
